# xmcd CD database file
#
# Track frame offsets:
#	150
#	52241
#	103584
#	155625
#	198053
#	252254
#
# Disc length: 3959 seconds
#
# Revision: 0
# Processed by: cddbd v1.4PL0 Copyright (c) Steve Scherf et al.
# Submitted via: CDex 1.50
#
DISCID=4d0f7506
DTITLE=UAH Jazz Faculty and Friends - Future Standards Live!
DYEAR=2000
DGENRE=Jazz
TTITLE0=Left Over Vowels
TTITLE1=Vessel
TTITLE2=Not From Around Here
TTITLE3=Done It!
TTITLE4=Just Lookin'
TTITLE5=Where'd The Songo?
EXTD=YEAR: 2000
EXTT0=
EXTT1=
EXTT2=
EXTT3=
EXTT4=
EXTT5=
PLAYORDER=
